<?xml version="1.0" encoding="utf-8"?>
<svg xmlns="http://www.w3.org/2000/svg"
	xmlns:xlink="http://www.w3.org/1999/xlink"
	width="33px" height="33px" viewBox="0 0 33 33">
<path fillRule="evenodd" d="M 16.51 32.99C 7.39 32.99 0.01 25.61 0.01 16.49 0.01 7.38 7.39-0.01 16.51-0.01 25.62-0.01 33.01 7.38 33.01 16.49 33.01 25.61 25.62 32.99 16.51 32.99ZM 24.21 14.59C 24.21 14.59 18.36 14.63 18.36 14.63 18.36 14.63 18.36 8.8 18.36 8.8 18.36 8.8 13.96 8.78 13.96 8.78 13.96 8.78 13.96 14.64 13.96 14.64 13.96 14.64 8.08 14.64 8.08 14.64 8.08 14.64 8.08 19.07 8.08 19.07 8.08 19.07 13.96 19.07 13.96 19.07 13.96 19.07 13.96 24.89 13.96 24.89 13.96 24.89 18.34 24.89 18.34 24.89 18.34 24.89 18.31 19.07 18.31 19.07 18.31 19.07 24.23 19.07 24.23 19.07 24.23 19.07 24.21 14.59 24.21 14.59Z" fill="rgb(255,255,255)"/></svg>